<svg width="157" height="53" viewBox="0 0 157 53" fill="none" xmlns="http://www.w3.org/2000/svg">
<g clip-path="url(#clip0_1_10)">
<path d="M8.30529 1.30865H0V50.9192H19.3241L20.566 43.3031H8.30529V1.30865Z" fill="white"/>
<path d="M41.1733 1.30865H30.231L22.1671 50.9192H29.9249L31.2552 41.3342L32.3206 34.066L35.3931 11.9016L38.5304 34.066L39.5958 41.3342L40.9202 50.9192H49.2431L41.2204 1.57392L41.1733 1.30865Z" fill="white"/>
<path d="M71.1865 24.4928C74.2591 22.9838 75.813 19.7475 75.813 14.849V12.886C75.813 4.987 72.093 1.30865 64.0938 1.30865H52.2038V50.9192H64.6C68.473 50.9192 71.4691 49.8935 73.5292 47.8539C75.5893 45.8202 76.6017 42.8256 76.6017 38.9881V34.791C76.6017 31.9969 76.1073 29.6861 75.1361 27.9531C74.2591 26.3733 72.8641 25.1531 71.1865 24.4869V24.4928ZM60.5091 8.93061H63.9054C66.3305 8.93061 67.5077 10.4809 67.5077 13.6582V16.4052C67.5077 19.8183 66.2245 21.2743 63.2109 21.2743H60.515V8.93061H60.5091ZM68.2729 38.7641C68.2729 40.4382 67.9845 41.6172 67.3782 42.3128C66.7778 43.0142 65.9243 43.2795 64.5882 43.2795H60.4974V28.8727H63.6288C65.4064 28.8727 66.5071 29.244 67.2134 30.0634C67.9138 30.8828 68.2788 32.327 68.2788 34.5376V38.7641H68.2729Z" fill="white"/>
<path d="M97.2207 1.30865H86.2785L78.2145 50.9192H85.9783L87.3027 41.3342L88.368 34.066L91.4406 11.9016L94.5779 34.066L95.6433 41.3342L96.9735 50.9192H105.296L97.2619 1.57392L97.2149 1.30865H97.2207Z" fill="white"/>
<path d="M157 39.6188C157 46.7633 152.491 51.7444 146.034 51.7444C142.479 51.7444 139.483 50.2884 137.605 47.6534C135.804 45.101 135.734 41.6584 136.146 38.1157H141.649C141.102 40.7094 141.149 42.861 142.214 44.3641C143.026 45.4959 144.31 46.0736 146.028 46.0736C150.943 46.0736 151.332 41.1279 151.332 39.6188C151.332 35.298 149.389 33.3704 145.039 33.3704H136.057V18.9694H156.017V24.6402H141.72V27.6996H145.039C152.521 27.6996 156.994 32.1619 156.994 39.6188H157Z" fill="white"/>
<path d="M132.667 12.721C132.667 5.57649 128.158 0.595398 121.701 0.595398C118.146 0.595398 115.15 2.05141 113.272 4.68638C111.471 7.23882 111.194 10.6814 111.606 14.2241H117.11C116.562 11.6304 116.821 9.47884 117.887 7.97567C118.699 6.84387 119.982 6.26618 121.701 6.26618C126.616 6.26618 127.004 11.2119 127.004 12.721C127.004 17.0418 125.062 18.9694 120.712 18.9694H111.73V33.3704H132.096V27.6996H117.392V24.6402H120.712C128.193 24.6402 132.667 20.1779 132.667 12.721Z" fill="white"/>
<path d="M150.802 0C147.412 0 144.657 2.75876 144.657 6.15415C144.657 9.54955 147.412 12.3142 150.802 12.3142C154.192 12.3142 156.953 9.55544 156.953 6.15415C156.953 2.75286 154.198 0 150.802 0ZM150.802 8.77144C149.366 8.77144 148.194 7.59838 148.194 6.15415C148.194 4.70993 149.366 3.54277 150.802 3.54277C152.238 3.54277 153.415 4.71583 153.415 6.15415C153.415 7.59248 152.244 8.77144 150.802 8.77144Z" fill="#FF7230"/>
<path d="M111.436 37.1254V53.0059L124.685 45.0656L111.436 37.1254ZM114.738 42.9553L118.246 45.0656L114.738 47.176V42.9612V42.9553Z" fill="#FF7230"/>
</g>
<defs>
<clipPath id="clip0_1_10">
<rect width="157" height="53" fill="white"/>
</clipPath>
</defs>
</svg>
