<svg width="617" height="1082" viewBox="0 0 617 1082" fill="none" xmlns="http://www.w3.org/2000/svg">
<rect width="617" height="1082" fill="#FFDAB6"/>
<g opacity="0.5">
<path d="M256.83 256.02L256.83 262.057C256.711 282.772 254.876 299.285 251.325 311.595C247.656 323.906 242.329 333.849 235.345 341.425C228.361 349 219.957 355.866 210.132 362.021C202.793 366.756 196.224 371.669 190.423 376.759C184.623 381.849 180.007 387.471 176.574 393.626C173.141 399.9 171.425 406.884 171.425 414.578C171.425 422.746 173.378 429.907 177.284 436.063C181.19 442.218 186.458 446.953 193.087 450.267C199.597 453.581 206.818 455.239 214.749 455.239C222.443 455.239 229.723 453.522 236.588 450.09C243.454 446.775 249.076 441.804 253.456 435.175C257.836 428.664 260.203 420.556 260.558 410.849L333.001 410.849C332.41 434.524 326.728 454.055 315.956 469.443C305.184 484.95 290.921 496.491 273.165 504.067C255.409 511.761 235.819 515.608 214.394 515.608C190.838 515.608 170.004 511.702 151.894 503.889C133.783 496.195 119.578 485.009 109.28 470.331C98.9816 455.653 93.8324 437.956 93.8324 417.242C93.8324 403.392 96.1407 391.081 100.757 380.31C105.255 369.656 111.588 360.187 119.756 351.901C127.923 343.733 137.571 336.335 148.697 329.706C158.049 324.143 165.743 318.342 171.78 312.305C177.698 306.268 182.137 299.285 185.097 291.354C187.938 283.423 189.417 273.657 189.536 262.057L189.536 256.02L256.83 256.02ZM221.673 142.384C233.51 142.384 243.631 146.527 252.036 154.813C260.322 163.217 264.405 173.278 264.287 184.997C264.405 196.598 260.322 206.541 252.036 214.827C243.631 223.113 233.51 227.256 221.673 227.256C210.428 227.256 200.544 223.113 192.021 214.827C183.499 206.541 179.178 196.598 179.06 184.997C179.178 177.185 181.25 170.023 185.274 163.513C189.18 157.121 194.33 151.972 200.722 148.065C207.114 144.277 214.098 142.384 221.673 142.384Z" fill="#E67D3F" fill-opacity="0.49"/>
<path d="M413.17 826.98V820.943C413.289 800.228 415.124 783.715 418.675 771.405C422.344 759.094 427.671 749.151 434.655 741.575C441.639 734 450.043 727.134 459.868 720.979C467.207 716.244 473.777 711.331 479.577 706.241C485.377 701.152 489.993 695.529 493.426 689.374C496.859 683.1 498.575 676.116 498.575 668.422C498.575 660.254 496.622 653.093 492.716 646.938C488.81 640.782 483.542 636.047 476.913 632.733C470.403 629.419 463.182 627.761 455.251 627.761C447.557 627.761 440.277 629.478 433.412 632.911C426.546 636.225 420.924 641.196 416.544 647.825C412.164 654.336 409.797 662.444 409.442 672.151H336.999C337.59 648.476 343.272 628.945 354.044 613.557C364.816 598.05 379.08 586.509 396.835 578.933C414.591 571.239 434.181 567.392 455.607 567.392C479.162 567.392 499.996 571.298 518.107 579.111C536.217 586.805 550.422 597.991 560.72 612.669C571.018 627.347 576.168 645.044 576.168 665.759C576.168 679.608 573.859 691.919 569.243 702.69C564.745 713.344 558.412 722.813 550.244 731.099C542.077 739.267 532.429 746.665 521.303 753.294C511.951 758.857 504.257 764.658 498.22 770.695C492.302 776.732 487.863 783.715 484.903 791.646C482.063 799.577 480.583 809.343 480.464 820.943V826.98H413.17ZM448.327 940.616C436.49 940.616 426.369 936.473 417.964 928.188C409.679 919.783 405.595 909.722 405.713 898.003C405.595 886.402 409.679 876.459 417.964 868.173C426.369 859.887 436.49 855.744 448.327 855.744C459.572 855.744 469.456 859.887 477.979 868.173C486.501 876.459 490.822 886.402 490.94 898.003C490.822 905.815 488.75 912.977 484.726 919.487C480.82 925.879 475.67 931.028 469.278 934.935C462.886 938.723 455.902 940.616 448.327 940.616Z" fill="#E67D3F" fill-opacity="0.49"/>
<circle cx="141.5" cy="935.5" r="122.5" fill="#E67D3F"/>
<circle cx="476.5" cy="146.5" r="122.5" fill="#E67D3F"/>
</g>
</svg>
